<svg width="1419" height="926" viewBox="0 0 1419 926" fill="none" xmlns="http://www.w3.org/2000/svg">
<g opacity="0.5">
<path opacity="0.05" d="M695.346 58.4398C690.945 42.152 676.065 30.1541 658.381 30.1541C637.233 30.1541 620.085 47.302 620.085 68.4493C620.085 68.6057 620.097 68.7509 620.097 68.9073C602.312 71.0299 588.918 80.2574 588.918 91.3281C588.918 97.8298 593.542 103.695 600.96 107.85C600.502 109.403 600.245 111.023 600.245 112.676C600.245 124.473 612.511 134.036 627.637 134.036C637.3 134.036 645.779 130.137 650.661 124.239C658.805 130.327 669.53 134.036 681.282 134.036C706.73 134.036 727.363 116.698 727.363 95.3163C727.375 78.0566 713.924 63.4334 695.346 58.4398Z" fill="#C6C6C6"/>
<path opacity="0.05" d="M188.806 255.181C180.997 226.27 154.6 205 123.231 205C85.7062 205 55.298 235.419 55.298 272.933C55.298 273.212 55.3203 273.48 55.3203 273.748C23.7614 277.524 0 293.89 0 313.529C0 325.058 8.21091 335.458 21.3707 342.854C20.5552 345.613 20.1083 348.473 20.1083 351.422C20.1083 372.346 41.8589 389.315 68.7035 389.315C85.8403 389.315 100.899 382.389 109.546 371.944C123.99 382.747 143.015 389.315 163.872 389.315C209.026 389.315 245.635 358.561 245.635 320.612C245.623 289.98 221.762 264.04 188.806 255.181Z" fill="#C6C6C6"/>
<path opacity="0.1" d="M797.236 190.281C791.767 169.954 773.279 155 751.309 155C725.027 155 703.73 176.387 703.73 202.762C703.73 202.958 703.745 203.146 703.745 203.335C681.642 205.99 665 217.496 665 231.304C665 239.41 670.751 246.722 679.968 251.921C679.396 253.861 679.084 255.872 679.084 257.946C679.084 272.657 694.317 284.587 713.119 284.587C725.121 284.587 735.668 279.717 741.724 272.374C751.841 279.969 765.165 284.587 779.773 284.587C811.398 284.587 837.038 262.964 837.038 236.284C837.03 214.747 820.318 196.51 797.236 190.281Z" fill="#C6C6C6"/>
<path opacity="0.15" d="M1368.3 465.71C1361.34 439.951 1337.81 421 1309.85 421C1276.4 421 1249.29 448.103 1249.29 481.526C1249.29 481.774 1249.31 482.013 1249.31 482.252C1221.18 485.616 1200 500.198 1200 517.696C1200 527.967 1207.32 537.234 1219.05 543.823C1218.32 546.281 1217.92 548.829 1217.92 551.457C1217.92 570.099 1237.31 585.218 1261.24 585.218C1276.52 585.218 1289.94 579.047 1297.65 569.741C1310.52 579.366 1327.48 585.218 1346.07 585.218C1386.33 585.218 1418.96 557.817 1418.96 524.006C1418.96 496.714 1397.69 473.603 1368.3 465.71Z" fill="#C6C6C6"/>
<path opacity="0.15" d="M915.301 44.7098C908.34 18.9509 884.809 0 856.847 0C823.398 0 796.292 27.1026 796.292 60.5255C796.292 60.7743 796.312 61.0132 796.312 61.2521C768.181 64.6163 747 79.1978 747 96.6955C747 106.967 754.319 116.234 766.05 122.823C765.323 125.281 764.924 127.829 764.924 130.457C764.924 149.099 784.313 164.218 808.242 164.218C823.518 164.218 836.941 158.047 844.649 148.741C857.524 158.366 874.483 164.218 893.075 164.218C933.325 164.218 965.958 136.817 965.958 103.006C965.958 75.7141 944.687 52.6027 915.301 44.7098Z" fill="#C6C6C6"/>
<path opacity="0.05" d="M342.539 768.005C333.376 734.01 302.402 709 265.595 709C221.565 709 185.885 744.768 185.885 788.877C185.885 789.206 185.911 789.521 185.911 789.836C148.881 794.276 121 813.519 121 836.612C121 850.168 130.634 862.397 146.076 871.093C145.119 874.337 144.594 877.7 144.594 881.167C144.594 905.77 170.116 925.723 201.614 925.723C221.722 925.723 239.392 917.579 249.537 905.298C266.486 918 288.809 925.723 313.282 925.723C366.265 925.723 409.22 889.561 409.22 844.94C409.22 808.922 381.221 778.421 342.539 768.005Z" fill="#C6C6C6"/>
<path opacity="0.1" d="M149.324 706.069C145.133 690.474 130.967 679 114.133 679C93.9948 679 77.676 695.409 77.676 715.645C77.676 715.795 77.688 715.94 77.688 716.085C60.7517 718.121 48 726.95 48 737.544C48 743.762 52.4064 749.373 59.4687 753.362C59.0311 754.851 58.7913 756.393 58.7913 757.984C58.7913 769.271 70.4638 778.425 84.8702 778.425C94.0667 778.425 102.148 774.688 106.788 769.054C114.54 774.881 124.75 778.425 135.943 778.425C160.175 778.425 179.821 761.835 179.821 741.364C179.821 724.841 167.016 710.848 149.324 706.069Z" fill="#C6C6C6"/>
<path opacity="0.09" d="M833.519 679.977C828.121 659.826 809.873 645 788.188 645C762.248 645 741.227 666.203 741.227 692.35C741.227 692.545 741.242 692.731 741.242 692.918C719.426 695.55 703 706.957 703 720.646C703 728.682 708.676 735.931 717.773 741.086C717.21 743.009 716.901 745.002 716.901 747.058C716.901 761.642 731.936 773.47 750.494 773.47C762.34 773.47 772.75 768.642 778.727 761.362C788.713 768.892 801.864 773.47 816.282 773.47C847.497 773.47 872.804 752.034 872.804 725.583C872.804 704.232 856.308 686.152 833.519 679.977Z" fill="#C6C6C6"/>
<path opacity="0.1" d="M1255.71 361.885C1249.11 337.177 1226.78 319 1200.24 319C1168.5 319 1142.78 344.996 1142.78 377.055C1142.78 377.294 1142.8 377.523 1142.8 377.752C1116.1 380.979 1096 394.965 1096 411.749C1096 421.601 1102.95 430.489 1114.08 436.81C1113.39 439.168 1113.01 441.612 1113.01 444.132C1113.01 462.014 1131.41 476.515 1154.12 476.515C1168.61 476.515 1181.35 470.596 1188.67 461.67C1200.89 470.902 1216.98 476.515 1234.62 476.515C1272.82 476.515 1303.79 450.233 1303.79 417.802C1303.79 391.624 1283.6 369.456 1255.71 361.885Z" fill="#C6C6C6"/>
</g>
</svg>
