<svg aria-hidden="true" style="position: absolute; width: 0; height: 0; overflow: hidden;" version="1.1" xmlns="http://www.w3.org/2000/svg" xmlns:xlink="http://www.w3.org/1999/xlink">
<defs>
<symbol id="icon-linkedin" viewBox="0 0 30 32">
<path fill="#696969" style="fill: var(--color1, #696969)" d="M6.583 30.254h-6.094v-19.76h6.094v19.76zM3.534 7.799c-1.952 0-3.534-1.627-3.534-3.589 0-0.003-0-0.007-0-0.011 0-1.953 1.58-3.536 3.531-3.543h0.001c1.952 0.006 3.531 1.59 3.531 3.543 0 0.004 0 0.008-0 0.012v-0.001c0 1.963-1.582 3.589-3.531 3.589zM29.41 30.254h-6.085v-9.618c0-2.293-0.046-5.234-3.17-5.234-3.17 0-3.657 2.491-3.657 5.070v9.783h-6.094v-19.76h5.849v2.697h0.085c0.814-1.554 2.802-3.193 5.771-3.193 6.171 0 7.305 4.091 7.305 9.401v10.857h-0.007z"></path>
</symbol>
<symbol id="icon-twitter" viewBox="0 0 39 32">
<path fill="#696969" style="fill: var(--color1, #696969)" d="M34.377 7.986c0.023 0.32 0.023 0.645 0.023 0.965 0 9.813-7.582 21.12-21.44 21.12-0.020 0-0.043 0-0.066 0-4.268 0-8.247-1.242-11.593-3.384l0.086 0.052c0.608 0.069 1.189 0.091 1.819 0.091 3.525 0 6.766-1.17 9.355-3.17-3.314-0.069-6.089-2.206-7.045-5.147 0.466 0.069 0.933 0.114 1.422 0.114 0.677 0 1.353-0.091 1.984-0.251-3.451-0.69-6.043-3.68-6.043-7.287v-0.091c1.006 0.553 2.171 0.896 3.406 0.942-2.031-1.335-3.354-3.602-3.36-6.177v-0.001c0-1.378 0.375-2.642 1.029-3.746 3.761 4.514 9.278 7.455 15.487 7.765l0.051 0.002c-0.116-0.51-0.184-1.096-0.187-1.698v-0.003c0-4.091 3.36-7.422 7.536-7.422 2.171 0 4.13 0.896 5.506 2.343 1.801-0.348 3.405-0.971 4.851-1.83l-0.069 0.038c-0.589 1.751-1.761 3.175-3.28 4.073l-0.035 0.019c1.609-0.184 3.077-0.589 4.441-1.188l-0.098 0.038c-1.053 1.497-2.305 2.768-3.734 3.808l-0.046 0.032z"></path>
</symbol>
<symbol id="icon-facebook" viewBox="0 0 17 32">
<path fill="#696969" style="fill: var(--color1, #696969)" d="M5.387 30.28v-13.544h-4.574v-5.382h4.574v-4.239c0-4.608 2.839-7.115 6.984-7.115 1.986 0 3.691 0.149 4.186 0.213v4.815h-2.872c-2.255 0-2.69 1.064-2.69 2.618v3.708h5.088l-0.696 5.384h-4.393v13.542z"></path>
</symbol>
<symbol id="icon-pinterest" viewBox="0 0 26 32">
<path fill="#696969" style="fill: var(--color1, #696969)" d="M14.060 0.574c-6.536 0-12.994 4.056-12.994 10.62 0 4.176 2.522 6.548 4.050 6.548 0.63 0 0.994-1.636 0.994-2.1 0-0.55-1.51-1.724-1.51-4.020 0-4.768 3.898-8.148 8.94-8.148 4.338 0 7.546 2.294 7.546 6.512 0 3.148-1.356 9.054-5.75 9.054-1.586 0-2.94-1.066-2.94-2.596 0-2.242 1.68-4.412 1.68-6.726 0-3.926-5.98-3.214-5.98 1.53 0 0.996 0.134 2.1 0.612 3.008-0.88 3.52-2.674 8.77-2.674 12.4 0 1.12 0.172 2.224 0.286 3.344 0.216 0.226 0.108 0.2 0.44 0.090 3.208-4.092 3.094-4.894 4.546-10.248 0.782 1.388 2.808 2.134 4.412 2.134 6.762 0 9.8-6.138 9.8-11.67 0-5.89-5.464-9.732-11.46-9.732z"></path>
</symbol>
</defs>
</svg>
